<svg xmlns="http://www.w3.org/2000/svg" xmlns:xlink="http://www.w3.org/1999/xlink" width="730" height="537.62"><rect width="730" height="537.62" rx="5" ry="5" class="a"/><svg y="0%" x="0%"><circle cx="20" cy="20" r="6" fill="#ff5f58"/><circle cx="40" cy="20" r="6" fill="#ffbd2e"/><circle cx="60" cy="20" r="6" fill="#18c132"/></svg><svg height="477.62" viewBox="0 0 69 47.762" width="690" x="15" xmlns="http://www.w3.org/2000/svg" xmlns:xlink="http://www.w3.org/1999/xlink" y="50"><style>@keyframes i{0%{transform:translateX(0)}2.5%{transform:translateX(-207px)}10.3%{transform:translateX(-276px)}11.2%{transform:translateX(-345px)}12.4%{transform:translateX(-414px)}14.2%{transform:translateX(-483px)}15.1%{transform:translateX(-552px)}16.3%{transform:translateX(-621px)}19.8%{transform:translateX(-690px)}21%{transform:translateX(-759px)}22.7%{transform:translateX(-828px)}23.5%{transform:translateX(-897px)}23.6%{transform:translateX(-1173px)}to{transform:translateX(-1242px)}}.a{fill:#282d35}.f{fill:#b9c0cb;white-space:pre}</style><g font-family="Monaco,Consolas,Menlo,'Bitstream Vera Sans Mono','Powerline Symbols',monospace" font-size="1.67"><defs><symbol id="1"><text y="1.67" class="f">raffi@internet</text><text x="15.03" y="1.67" class="f">~</text><text x="17.034" y="1.67" class="f">%</text></symbol><symbol id="2"><text y="1.67" class="f">raffi@internet</text><text x="15.03" y="1.67" class="f">~</text><text x="17.034" y="1.67" class="f">%</text><text x="19.038" y="1.67" class="f">mirdir</text></symbol><symbol id="3"><text y="1.67" class="f">raffi@internet</text><text x="15.03" y="1.67" class="f">~</text><text x="17.034" y="1.67" class="f">%</text><text x="19.038" y="1.67" class="f">mirdir</text><text x="26.052" y="1.67" class="f">-h</text></symbol><symbol id="4"><text y="1.67" class="f">CLI</text><text x="4.008" y="1.67" class="f">tool</text><text x="9.018" y="1.67" class="f">that</text><text x="14.028" y="1.67" class="f">mirrors</text><text x="22.044" y="1.67" class="f">and</text><text x="26.052" y="1.67" class="f">templates</text><text x="36.072" y="1.67" class="f">a</text><text x="38.076" y="1.67" class="f">directory</text><text x="48.096" y="1.67" class="f">structure</text></symbol><symbol id="5"><text y="1.67" class="f">Usage:</text></symbol><symbol id="6"><text x="2.004" y="1.67" class="f">mirdir</text><text x="9.018" y="1.67" class="f">TPL_DIR</text><text x="17.034" y="1.67" class="f">DST_DIR</text><text x="25.05" y="1.67" class="f">[flags]</text></symbol><symbol id="7"><text y="1.67" class="f">Flags:</text></symbol><symbol id="8"><text x="2.004" y="1.67" class="f">-e,</text><text x="6.012" y="1.67" class="f">--delete-empty</text><text x="23.046" y="1.67" class="f">delete</text><text x="30.06" y="1.67" class="f">file</text><text x="35.07" y="1.67" class="f">if</text><text x="38.076" y="1.67" class="f">its</text><text x="42.084" y="1.67" class="f">only</text><text x="47.094" y="1.67" class="f">whitespace</text></symbol><symbol id="9"><text x="2.004" y="1.67" class="f">-d,</text><text x="6.012" y="1.67" class="f">--dry-run</text><text x="23.046" y="1.67" class="f">print</text><text x="29.058" y="1.67" class="f">output</text><text x="36.072" y="1.67" class="f">without</text><text x="44.088" y="1.67" class="f">writing</text></symbol><symbol id="10"><text x="2.004" y="1.67" class="f">-h,</text><text x="6.012" y="1.67" class="f">--help</text><text x="23.046" y="1.67" class="f">help</text><text x="28.056" y="1.67" class="f">for</text><text x="32.064" y="1.67" class="f">mirdir</text></symbol><symbol id="11"><text x="2.004" y="1.67" class="f">-p,</text><text x="6.012" y="1.67" class="f">--preserve</text><text x="23.046" y="1.67" class="f">preserve</text><text x="32.064" y="1.67" class="f">permissions</text><text x="44.088" y="1.67" class="f">and</text><text x="48.096" y="1.67" class="f">ownership</text></symbol><symbol id="12"><text x="2.004" y="1.67" class="f">-v,</text><text x="6.012" y="1.67" class="f">--verbose</text><text x="23.046" y="1.67" class="f">print</text><text x="29.058" y="1.67" class="f">verbose</text><text x="37.074" y="1.67" class="f">output</text></symbol><symbol id="13"><text x="6.012" y="1.67" class="f">--version</text><text x="23.046" y="1.67" class="f">version</text><text x="31.062" y="1.67" class="f">for</text><text x="35.07" y="1.67" class="f">mirdir</text></symbol><symbol id="14"><text x="2.004" y="1.67" class="f">-y,</text><text x="6.012" y="1.67" class="f">--yes</text><text x="23.046" y="1.67" class="f">don&apos;t</text><text x="29.058" y="1.67" class="f">ask,</text><text x="34.068" y="1.67" class="f">just</text><text x="39.078" y="1.67" class="f">do</text></symbol><symbol id="a"><path fill="transparent" d="M0 0h69v22H0z"/></symbol><symbol id="b"><path fill="#6f7683" d="M0 0h1.102v2.171H0z"/></symbol></defs><path class="a" d="M0 0h69v47.762H0z"/><g style="animation-duration:16.175546s;animation-iteration-count:infinite;animation-name:i;animation-timing-function:steps(1,end)"><svg width="1311"><svg><use xlink:href="#a"/><use xlink:href="#b" x="-.004"/></svg><svg x="69"><use xlink:href="#a"/><use xlink:href="#b" x="-.004"/></svg><svg x="138"><use xlink:href="#a"/><use xlink:href="#b" x="-.004"/></svg><svg x="207"><use xlink:href="#a"/><use xlink:href="#b" x="18.996"/><use xlink:href="#1"/></svg><svg x="276"><use xlink:href="#a"/><use xlink:href="#b" x="19.996"/><text y="1.67" class="f">raffi@internet</text><text x="15.03" y="1.67" class="f">~</text><text x="17.034" y="1.67" class="f">%</text><text x="19.038" y="1.67" class="f">m</text></svg><svg x="345"><use xlink:href="#a"/><use xlink:href="#b" x="20.996"/><text y="1.67" class="f">raffi@internet</text><text x="15.03" y="1.67" class="f">~</text><text x="17.034" y="1.67" class="f">%</text><text x="19.038" y="1.67" class="f">mi</text></svg><svg x="414"><use xlink:href="#a"/><use xlink:href="#b" x="21.996"/><text y="1.67" class="f">raffi@internet</text><text x="15.03" y="1.67" class="f">~</text><text x="17.034" y="1.67" class="f">%</text><text x="19.038" y="1.67" class="f">mir</text></svg><svg x="483"><use xlink:href="#a"/><use xlink:href="#b" x="22.996"/><text y="1.67" class="f">raffi@internet</text><text x="15.03" y="1.67" class="f">~</text><text x="17.034" y="1.67" class="f">%</text><text x="19.038" y="1.67" class="f">mird</text></svg><svg x="552"><use xlink:href="#a"/><use xlink:href="#b" x="23.996"/><text y="1.67" class="f">raffi@internet</text><text x="15.03" y="1.67" class="f">~</text><text x="17.034" y="1.67" class="f">%</text><text x="19.038" y="1.67" class="f">mirdi</text></svg><svg x="621"><use xlink:href="#a"/><use xlink:href="#b" x="24.996"/><use xlink:href="#2"/></svg><svg x="690"><use xlink:href="#a"/><use xlink:href="#b" x="25.996"/><use xlink:href="#2"/></svg><svg x="759"><use xlink:href="#a"/><use xlink:href="#b" x="26.996"/><text y="1.67" class="f">raffi@internet</text><text x="15.03" y="1.67" class="f">~</text><text x="17.034" y="1.67" class="f">%</text><text x="19.038" y="1.67" class="f">mirdir</text><text x="26.052" y="1.67" class="f">-</text></svg><svg x="828"><use xlink:href="#a"/><use xlink:href="#b" x="27.996"/><use xlink:href="#3"/></svg><svg x="897"><use xlink:href="#a"/><use xlink:href="#b" x="-.004" y="2.146"/><use xlink:href="#3"/></svg><svg x="966"><use xlink:href="#a"/><use xlink:href="#b" x="-.004" y="6.488"/><use xlink:href="#3"/><use xlink:href="#4" y="2.171"/></svg><svg x="1035"><use xlink:href="#a"/><use xlink:href="#b" x="-.004" y="30.369"/><use xlink:href="#3"/><use xlink:href="#4" y="2.171"/><use xlink:href="#5" y="6.513"/><use xlink:href="#6" y="8.684"/><use xlink:href="#7" y="13.026"/><use xlink:href="#8" y="15.197"/><use xlink:href="#9" y="17.368"/><use xlink:href="#10" y="19.539"/><use xlink:href="#11" y="21.71"/><use xlink:href="#12" y="23.881"/><use xlink:href="#13" y="26.052"/><use xlink:href="#14" y="28.223"/></svg><svg x="1104"><use xlink:href="#a"/><use xlink:href="#b" x="-.004" y="30.369"/><use xlink:href="#3"/><use xlink:href="#4" y="2.171"/><use xlink:href="#5" y="6.513"/><use xlink:href="#6" y="8.684"/><use xlink:href="#7" y="13.026"/><use xlink:href="#8" y="15.197"/><use xlink:href="#9" y="17.368"/><use xlink:href="#10" y="19.539"/><use xlink:href="#11" y="21.71"/><use xlink:href="#12" y="23.881"/><use xlink:href="#13" y="26.052"/><use xlink:href="#14" y="28.223"/></svg><svg x="1173"><use xlink:href="#a"/><use xlink:href="#b" x="18.996" y="30.369"/><use xlink:href="#3"/><use xlink:href="#4" y="2.171"/><use xlink:href="#5" y="6.513"/><use xlink:href="#6" y="8.684"/><use xlink:href="#7" y="13.026"/><use xlink:href="#8" y="15.197"/><use xlink:href="#9" y="17.368"/><use xlink:href="#10" y="19.539"/><use xlink:href="#11" y="21.71"/><use xlink:href="#12" y="23.881"/><use xlink:href="#13" y="26.052"/><use xlink:href="#14" y="28.223"/><use xlink:href="#1" y="30.394"/></svg><svg x="1242"><use xlink:href="#a"/><use xlink:href="#b" x="-.004" y="32.54"/><use xlink:href="#3"/><use xlink:href="#4" y="2.171"/><use xlink:href="#5" y="6.513"/><use xlink:href="#6" y="8.684"/><use xlink:href="#7" y="13.026"/><use xlink:href="#8" y="15.197"/><use xlink:href="#9" y="17.368"/><use xlink:href="#10" y="19.539"/><use xlink:href="#11" y="21.71"/><use xlink:href="#12" y="23.881"/><use xlink:href="#13" y="26.052"/><use xlink:href="#14" y="28.223"/><use xlink:href="#1" y="30.394"/></svg></svg></g></g></svg></svg>